<svg xmlns="http://www.w3.org/2000/svg" viewBox="0 0 29.24 29.24"><defs><style>.cls-1{fill:#4e4e4e;}</style></defs><title>email</title><g id="Capa_2" data-name="Capa 2"><g id="ELEMENTS"><polygon class="cls-1" points="20.24 9.29 9.18 9.29 14.63 13.32 20.24 9.29"/><path class="cls-1" d="M7.51,10.68V19.9a.05.05,0,0,0,0,.05H21.68a.05.05,0,0,0,.05-.05V10.82l-7.12,5.1Z"/><path class="cls-1" d="M20.75,0H8.49A8.49,8.49,0,0,0,0,8.49V20.75a8.49,8.49,0,0,0,8.49,8.49H20.75a8.49,8.49,0,0,0,8.49-8.49V8.49A8.49,8.49,0,0,0,20.75,0Zm3.08,19.9a2.15,2.15,0,0,1-2.15,2.15H7.56A2.15,2.15,0,0,1,5.41,19.9V9.34A2.15,2.15,0,0,1,7.56,7.19H21.68a2.15,2.15,0,0,1,2.15,2.15Z"/></g></g></svg>