<svg xmlns="http://www.w3.org/2000/svg" viewBox="0 0 29.24 29.24"><defs><style>.cls-1{fill:#4e4e4e;}</style></defs><title>linkedin</title><g id="Capa_2" data-name="Capa 2"><g id="ELEMENTS"><path class="cls-1" d="M20.75,0H8.49A8.49,8.49,0,0,0,0,8.49V20.75a8.49,8.49,0,0,0,8.49,8.49H20.75a8.49,8.49,0,0,0,8.49-8.49V8.49A8.49,8.49,0,0,0,20.75,0ZM9.93,22.36H6.47V11.45H9.93ZM8.2,10.6a1.86,1.86,0,1,1,1.86-1.86A1.86,1.86,0,0,1,8.2,10.6ZM23.14,22.36H19.68V16.19a2,2,0,0,0-1.8-2.13,2.23,2.23,0,0,0-2,2.13v6.17H12.37V11.13h3.69l-.23,1.47h0a3.63,3.63,0,0,1,2.87-1.47c1.84,0,4.4,1,4.4,4Z"/></g></g></svg>