<?xml version="1.0" encoding="utf-8"?>
<!-- Generator: Adobe Illustrator 25.4.1, SVG Export Plug-In . SVG Version: 6.00 Build 0)  -->
<svg version="1.1" id="Capa_1" xmlns="http://www.w3.org/2000/svg" xmlns:xlink="http://www.w3.org/1999/xlink" x="0px" y="0px"
	 viewBox="0 0 100 100" style="enable-background:new 0 0 100 100;" xml:space="preserve">
<style type="text/css">
	.st0{fill:#1A1A1A;}
</style>
<g>
	<path class="st0" d="M18.2,55.8l-0.7,0.9c-2.3,3-4.4,5.4-6.2,7.3c1.8-1,3.9-1.6,6.4-1.6c2.7,0,5.9,0.7,9.6,2.1l8.6,3.5l8.9,3.6
		c3.7,1.5,6,2.3,6.8,2.3c0.9,0,2.1-0.7,3.6-2l0.8,0.8c-1.9,1.7-3.7,3.6-5.4,5.7c-3.2-1.1-8.1-3.1-14.7-5.9
		c-12.2-5.2-19.5-7.8-22-7.8c-1.2,0-2.3,0.3-3.1,0.8c-0.8,0.5-2.2,1.8-4.1,3.7l-0.6,0.6l-0.6-1c2.5-2.6,5.3-5.8,8.5-9.7l2.2-2.7
		c0-0.1,0.2-0.3,0.5-0.7c-0.6-0.1-1.1-0.1-1.6-0.1c-3.4,0-6,1-8,2.9c-2,2-3,4.6-3,7.9c0,2.9,1.2,5.3,3.5,7.3c2.3,2,5.1,3,8.4,3
		c2.3,0,5-0.9,8-2.7l0.7,0.9c-3.6,2.4-7.2,3.7-10.7,3.7c-3.4,0-6.1-1-8.1-3.1c-2-2.1-3-4.8-3-8.3c0-4.3,1.3-7.9,4-10.8
		c2.7-2.9,6.1-4.3,10.2-4.3c0.7,0,1.5,0,2.2,0.1l0.4,0l0.8-1.1c5.1-6.4,9.8-11,14-13.8c4.2-2.8,8.6-4.3,13-4.3
		c3.1,0,5.6,0.7,7.4,2.2s2.7,3.5,2.7,6.1c0,2.3-0.9,4.8-2.6,7.5c-1.9,3-4.4,5.3-7.5,7c-3.1,1.7-6.3,2.6-9.7,2.6
		c-3.1,0-8.2-0.6-15.3-1.9C20.6,56.1,19.2,55.9,18.2,55.8z M21.1,52.3c1.6,0.2,3.9,0.5,6.8,1c6.1,1.1,10.4,1.6,13,1.6
		c3.8,0,7.2-1.1,10.1-3.4c2.9-2.2,4.3-4.9,4.3-7.9c0-2.7-0.9-4.8-2.7-6.4c-1.8-1.6-4.2-2.4-7.2-2.4c-3.8,0-7.9,1.6-12.3,4.9
		c-3.1,2.3-6.8,6.1-11.1,11.4L21.1,52.3z"/>
	<path class="st0" d="M88.3,21.4l0.9,0.8c-0.9,1-1.5,1.9-1.7,2.7c-0.3,0.8-0.4,2.1-0.4,3.9c0,7.1,1.6,15.6,4.8,25.6
		c1.8,5.5,3.2,8.3,4.2,8.3c0.5,0,1.3-0.6,2.3-1.7l0.8,0.8l-0.4,0.4c-1.8,1.9-3.4,3.8-4.9,5.6l-0.6,0.8C90.5,63,88.3,57,86.5,50.5
		c-1.8-6.5-2.7-11.7-2.7-15.8c0-1.7,0.1-3.7,0.4-5.9l0.1-0.8c-1.7,1.7-4.2,4.8-7.7,9.1c-2.2,2.7-4.1,5-5.8,7l-0.7,0.8
		c1.1-0.1,2.4-0.1,3.9-0.1l9.1,0.2l1.3,0.1c-0.8,2.1-1.5,4.7-2.2,7.8h-1.2c0.3-1.1,0.4-2,0.4-2.6c0-0.8-0.3-1.3-0.8-1.6
		c-0.5-0.3-1.7-0.4-3.4-0.4h-4.5l-5.1,0.1l-0.6,0l-0.8,0.8c-4.5,4.4-7.5,7.2-9.1,8.6c-1.6,1.3-3.9,3-7,5l-0.9,0.6
		c1.5-0.1,3.1-0.2,4.8-0.2c3.9,0,7,0.1,9,0.4l5.9,0.7c1.6,0.2,3,0.3,4.2,0.3c3.2,0,5.8-0.8,7.8-2.5c1.9-1.7,3.1-4.1,3.6-7.3
		c0.8,0.5,1.2,1.1,1.2,1.8c0,1.8-1.2,3.9-3.6,6.2c-3.7,3.6-7.8,5.4-12.2,5.4c-1.5,0-3.5-0.1-6-0.4c-6.2-0.6-11.1-1-14.6-1l-6.6,0.2
		h-0.6l2-3.2c5.5-2,10.6-5.1,15.3-9.4c4.7-4.2,11.3-11.7,19.9-22.4C83.3,26.7,86.4,23.2,88.3,21.4z"/>
</g>
</svg>
