<svg id="Capa_1" data-name="Capa 1" xmlns="http://www.w3.org/2000/svg" viewBox="0 0 100 100"><defs><style>.cls-1{fill:#4d4d4d;}</style></defs><title>logo-propio-gris</title><path class="cls-1" d="M94.28,58.06l1.09,4.1-8.2,8.2ZM73.49,90.68H69.24l10.05-10ZM62.16,95.37,51,92.37H65.16ZM26.51,90.68,24.39,87l13.72,3.67Zm-9.73-7.46L13.78,72l7.1,12.31ZM3,50l2.12-3.68L8.83,60.05Zm1.6-12.16,8.2-8.2L5.72,41.94ZM26.51,9.32h4.25l-10,10.05ZM37.84,4.63l11.21,3H34.84ZM73.49,9.32,75.61,13,61.89,9.32Zm9.73,7.46,3,11.21-7.1-12.31Zm10.44,39L82.55,75l-15.7,15.7H44.65L23.19,84.93,12.09,65.7,6.34,44.25,17.45,25l15.7-15.7h22.2l21.46,5.75L87.91,34.3ZM97,50l-2.12,3.68L91.17,40Zm-1.5,6,3.46-6L89.49,33.64,84.72,15.88l-.12-.48-6.68-1.78-3.46-6H55.58L37.34,2.74,32.45,7.63H25.54L16.09,24,2.74,37.34,4.53,44,1.07,50l9.44,16.36L15.4,84.6l6.68,1.79,3.46,6H44.42l17.77,4.77.47.12,4.89-4.89h6.91L83.91,76,97.26,62.66ZM38.16,60c-1.66-.1-3.37-.15-5.14-.15H21.24c-.85,0-1.31-.31-1.31-1s.71-1,1.21-1.21a3.86,3.86,0,0,0,1.71-1.36c.56-.75,1.11-2.47,1.67-5.13,2.56-12.84,3.92-19.33,4-19.59A22.56,22.56,0,0,0,29,27.89a2,2,0,0,0-.4-1.36,4.38,4.38,0,0,0-1-.7c-.56-.36-.81-.66-.81-1,0-.66.55-1,1.61-1h8c.86,0,1.32.3,1.32.91.25.75-1.41,1.21-1.92,1.46a3.7,3.7,0,0,0-1.21,1.51,18.2,18.2,0,0,0-1,3.82L29.7,50.9a38.73,38.73,0,0,0-.8,4.53c0,1.2,1.15,1.81,3.52,1.81,3.83,0,6.8-1.16,8.26-2.57,2.16-2.06,3.37-4.73,4.78-4.73a1.2,1.2,0,0,1,.9.35c.56.4.66.91-.3,3.33-.4,1.05-1,3.07-1.36,3.92a3.57,3.57,0,0,1-3.62,2.57c-.26,0-1.26,0-2.92-.15m20.2,3.93H47c-.15,0-.25,0-.25-.2a.77.77,0,0,1,.15-.3l8.86-14.1c.1-.15.2-.24.25-.24s.15.09.2.35l2.52,13.84a1.13,1.13,0,0,1,0,.35c0,.21-.15.3-.4.3m8.71,11.69c-.46-.51-1-2-1.51-4.39L60.37,42.6a.53.53,0,0,0-.6-.5H58.06a.86.86,0,0,0-.81.5L39.33,70.29a39.39,39.39,0,0,1-2.92,4,8.33,8.33,0,0,1-2.32,2c-.65.35-1.26.55-1.26,1.26,0,.55.46.85,1.31.85h7.15c1,0,1.51-.3,1.51-1,0-.35-.3-.71-.95-1.11a1.75,1.75,0,0,1-.91-1.46q0-1.89,3.78-8a.71.71,0,0,1,.7-.35H58.81c.35,0,.5.15.55.4l.81,4.44a25.76,25.76,0,0,1,.4,3c0,2.57-2.51,1.87-2.51,3.28,0,.55.4.8,1.25.8h8.21c1.06,0,1.56-.3,1.56-1,0-1-1.16-1-2-1.86M63.66,50l-.13-.16.13-.84c.14-.17.69-.7,1.64-1.58q2-1.89,4.65-4.88A31.37,31.37,0,0,0,74,36.87,10.5,10.5,0,0,0,75.49,32a4.24,4.24,0,0,0-.92-2.86,3.46,3.46,0,0,0-2.75-1.06,4.47,4.47,0,0,0-2,.42,3.89,3.89,0,0,0-1.37,1.13,17,17,0,0,0-1.33,2.22l-.21.1L66,31.65,66,31.46l2-4.81a6.74,6.74,0,0,1,2.61-1.56,9.26,9.26,0,0,1,2.53-.36,8.41,8.41,0,0,1,3.63.75,5.56,5.56,0,0,1,2.42,2.17,6.52,6.52,0,0,1,.84,3.4,7.62,7.62,0,0,1-.19,1.81,7.42,7.42,0,0,1-.65,1.7,14.47,14.47,0,0,1-1.54,2.28,30.07,30.07,0,0,1-2.16,2.46c-.72.72-1.86,1.86-3.43,3.4L68.58,46v.21l1.93,0,4.56-.06c1.51,0,2.51,0,3-.07s1.07-.13,1.71-.24l.27.26a25.13,25.13,0,0,0-1.14,3.74l-.18.14q-4.86-.14-7.37-.14Z"/></svg>