<svg xmlns="http://www.w3.org/2000/svg" viewBox="0 0 29.24 29.24"><defs><style>.cls-1{fill:#4e4e4e;}</style></defs><title>github</title><g id="Capa_2" data-name="Capa 2"><g id="ELEMENTS"><path class="cls-1" d="M29.24,7.65V21.59a7.67,7.67,0,0,1-7.65,7.65H19.08a.71.71,0,0,1-.76-.75c0-.49,0-2.11,0-4.11a3.59,3.59,0,0,0-1-2.78c3.33-.37,6.82-1.63,6.82-7.39a5.8,5.8,0,0,0-1.54-4,5.37,5.37,0,0,0-.15-4s-1.25-.4-4.1,1.53a14.54,14.54,0,0,0-3.74-.5,14.12,14.12,0,0,0-3.74.5C8,5.81,6.78,6.22,6.78,6.22a5.43,5.43,0,0,0-.15,4,5.85,5.85,0,0,0-1.54,4c0,5.74,3.49,7,6.81,7.4a3.19,3.19,0,0,0-1,2A3.18,3.18,0,0,1,6.6,22.37a3.13,3.13,0,0,0-2.29-1.54s-1.45,0-.1.91a4,4,0,0,1,1.66,2.19s.88,2.92,5,2c0,1.25,0,2.2,0,2.55a.71.71,0,0,1-.76.75H7.65A7.67,7.67,0,0,1,0,21.59V7.65A7.67,7.67,0,0,1,7.65,0H21.59A7.67,7.67,0,0,1,29.24,7.65Z"/></g></g></svg>