<?xml version="1.0" encoding="utf-8"?>
<!-- Generator: Adobe Illustrator 23.1.0, SVG Export Plug-In . SVG Version: 6.00 Build 0)  -->
<svg version="1.1" id="Capa_1" xmlns="http://www.w3.org/2000/svg" xmlns:xlink="http://www.w3.org/1999/xlink" x="0px" y="0px"
	 viewBox="0 0 100 100" style="enable-background:new 0 0 100 100;" xml:space="preserve">
<style type="text/css">
	.st0{fill:#FF0000;}
</style>
<g id="XMLID_374_">
	<path id="XMLID_2285_" class="st0" d="M63.6,34.3c-0.3-0.3-0.8-0.4-1.2-0.3l-37.2,7.2c-0.7,0.1-1.1,0.7-1.1,1.4v36.8
		c-2.7-0.3-5.7,0.1-8.7,1.2c-7,2.7-11.2,8.4-9.4,12.9c0.9,2.3,3.1,3.9,6.2,4.4c0.8,0.1,1.7,0.2,2.6,0.2c2.2,0,4.6-0.5,6.9-1.3
		c5.9-2.2,9.9-6.7,9.8-10.8c0,0,0-0.1,0-0.1V61.8l25.3-4.9v14.3c-2.7-0.3-5.7,0.1-8.7,1.2c-7,2.7-11.2,8.4-9.4,12.9
		c0.9,2.3,3.1,3.9,6.2,4.4c2.9,0.5,6.2,0.1,9.5-1.1c5.7-2.2,9.7-6.6,9.8-10.6c0-0.1,0-0.1,0-0.2V35.4C64.1,35,63.9,34.6,63.6,34.3
		C63.6,34.3,63.6,34.3,63.6,34.3z M61.3,77.8c0,0.1,0,0.1,0,0.2c0,2.9-3.3,6.4-8,8.1c-2.8,1.1-5.6,1.4-7.9,1
		c-2.1-0.4-3.5-1.3-4.1-2.7c-1.1-3,2.4-7.2,7.8-9.3c3.1-1.2,6.3-1.5,8.7-0.8c0.4,0.1,0.9,0,1.2-0.2c0.3-0.3,0.6-0.7,0.6-1.1V55.2
		c0-0.4-0.2-0.8-0.5-1.1c-0.3-0.3-0.8-0.4-1.2-0.3l-28.2,5.4c-0.7,0.1-1.2,0.7-1.2,1.4v25.1c0,0.1,0,0.1,0,0.2
		c0.1,2.9-3.3,6.5-8,8.2c-2.8,1.1-5.6,1.4-7.9,1c-2.1-0.4-3.5-1.3-4.1-2.7c-1.1-3,2.4-7.2,7.8-9.3c2-0.8,4-1.2,5.9-1.2
		c1,0,2,0.1,2.8,0.3c0.4,0.1,0.9,0,1.2-0.2c0.3-0.3,0.6-0.7,0.6-1.1V43.8l34.4-6.6L61.3,77.8L61.3,77.8z"/>
	<path id="XMLID_2294_" class="st0" d="M30,56.9c0.1,0,0.2,0,0.3,0l28.2-5.4c0.7-0.1,1.2-0.7,1.2-1.4v-3.9c0-0.4-0.2-0.8-0.5-1.1
		c-0.3-0.3-0.8-0.4-1.2-0.3l-28.2,5.4c-0.7,0.1-1.2,0.7-1.2,1.4v3.9c0,0.4,0.2,0.8,0.5,1.1C29.3,56.8,29.7,56.9,30,56.9z M31.4,52.7
		l25.3-4.9v1l-25.3,4.9C31.4,53.8,31.4,52.7,31.4,52.7z"/>
	<path id="XMLID_2318_" class="st0" d="M95,6.8C95,6.8,95,6.7,95,6.8c-0.1-0.3-0.3-0.5-0.5-0.5L73.9,1.7c-0.3-0.1-0.7,0.1-0.8,0.4
		L64.9,21c-1.3-0.8-3-1.3-4.7-1.3c-1.9-0.1-3.7,0.3-5.1,1.1c-1.5,0.8-2.4,2-2.4,3.4c-0.1,1.3,0.7,2.6,2.1,3.6c1.3,0.9,3.1,1.4,5,1.5
		c3.5,0.2,6.5-1.2,7.4-3.3c0,0,0,0,0,0l5.4-12.4l14.2,3.2l-3.3,7.5c-1.3-0.8-3-1.3-4.7-1.3c-4.2-0.2-7.5,1.8-7.6,4.4
		c-0.1,1.3,0.7,2.6,2.1,3.6c1.3,0.9,3.1,1.4,5,1.5c0.2,0,0.3,0,0.5,0c3.2,0,5.9-1.3,6.8-3.2c0,0,0-0.1,0-0.1L95,7.3
		C95,7.1,95.1,7,95,6.8z M84.3,28.3C84.3,28.4,84.2,28.4,84.3,28.3c-0.7,1.6-3.2,2.6-6,2.5c-1.7-0.1-3.2-0.5-4.3-1.3
		c-1-0.7-1.6-1.5-1.5-2.3c0.1-1.7,2.6-3.1,5.7-3.1c0.1,0,0.3,0,0.5,0c1.8,0.1,3.6,0.6,4.7,1.5c0.2,0.1,0.4,0.2,0.6,0.1
		c0.2-0.1,0.4-0.2,0.5-0.4l3.9-9.1c0.1-0.2,0.1-0.4,0-0.6c-0.1-0.2-0.3-0.3-0.5-0.4l-15.6-3.5c-0.3-0.1-0.7,0.1-0.8,0.4l-5.6,12.8
		c0,0,0,0,0,0.1c-0.6,1.5-3.2,2.6-6,2.5c-1.7-0.1-3.2-0.5-4.3-1.3c-1-0.7-1.6-1.5-1.5-2.3c0-0.8,0.6-1.6,1.7-2.2
		c1.2-0.7,2.8-1,4.4-0.9c1.9,0.1,3.6,0.6,4.7,1.5c0.2,0.1,0.4,0.2,0.6,0.1c0.2-0.1,0.4-0.2,0.5-0.4l8.3-19.1l19.2,4.3L84.3,28.3z"/>
	<path id="XMLID_2360_" class="st0" d="M73.4,7.7l-0.9,2c-0.1,0.2-0.1,0.4,0,0.6c0.1,0.2,0.3,0.3,0.5,0.4l15.6,3.5
		c0.1,0,0.1,0,0.2,0c0.3,0,0.5-0.2,0.7-0.4l0.9-2c0.1-0.2,0.1-0.4,0-0.6c-0.1-0.2-0.3-0.3-0.5-0.4L74.2,7.3
		C73.9,7.2,73.5,7.4,73.4,7.7z M74.5,8.8L88.6,12l-0.3,0.7L74.2,9.5L74.5,8.8z"/>
</g>
</svg>
