<svg xmlns="http://www.w3.org/2000/svg" viewBox="0 0 90 180.29"><defs><style>.cls-1{fill:#f4acbb;}</style></defs><title>Recurso 9</title><g id="Capa_2" data-name="Capa 2"><g id="Capa_1-2" data-name="Capa 1"><path class="cls-1" d="M62.25,145.34a3.85,3.85,0,0,0-3.85-3.85,50.7,50.7,0,0,1,0-101.4V73.2a10.29,10.29,0,1,0,3.85,0V1.92a1.93,1.93,0,0,0-3.85,0V32.39a58.4,58.4,0,0,0,0,116.8A3.86,3.86,0,0,0,62.25,145.34Z"/><path class="cls-1" d="M55.05,110.39a3.85,3.85,0,1,0,0,7.7,27.25,27.25,0,0,1,0,54.5,3.85,3.85,0,0,0,0,7.7,35,35,0,1,0,0-69.9Z"/></g></g></svg>